# xmcd
#
# Track frame offsets:
#	180
#	11592
#	25728
#	38885
#	53058
#	68846
#	83080
#	98775
#	111360
#	126615
#	142727
#	160704
#	174346
#	190960
#	207816
#
# Disc length: 3084 seconds
#
# Revision: 4
# Processed by: cddbd v1.5.1PL0 Copyright (c) Steve Scherf et al.
# Submitted via: audiograbber 1.83.01
#
DISCID=c20c0a0f
DTITLE=Hufnagel - Herz and Verstand
DYEAR=1996
DGENRE=Country
TTITLE0=Hufnagel - Herz and Verstand
TTITLE1=Hufnagel - Rio Verde
TTITLE2=Hufnagel - Wir Wollen Country Musik Hören
TTITLE3=Hufnagel - 10.000 Meilen
TTITLE4=Hufnagel - Lass Mich Bloss In Ruhe
TTITLE5=Hufnagel - Halleluja, Alles Klar
TTITLE6=Hufnagel - Small Town
TTITLE7=Hufnagel - Rodeo
TTITLE8=Hufnagel - Hey, Kleiner Cowboy
TTITLE9=Hufnagel - Sieben Tage
TTITLE10=Hufnagel - Hey, Doc
TTITLE11=Hufnagel - Lass Ihn Steh´n
TTITLE12=Hufnagel - Cowboyhut
TTITLE13=Hufnagel - Kein Morgen
TTITLE14=Hufnagel - Wonderful Tonight
EXTD=http:\\\\www.hufnagel-berlin.de
EXTT0=
EXTT1=
EXTT2=
EXTT3=
EXTT4=
EXTT5=
EXTT6=
EXTT7=
EXTT8=
EXTT9=
EXTT10=
EXTT11=
EXTT12=
EXTT13=
EXTT14=
PLAYORDER=
